Patient4_TMGait_0pt7_02_left_17_EMG.mot
version=1
nRows=20
nColumns=33
inDegrees=no
endheader
time	1LAddLong	2LGlutMax	3LGlutMed	4LIliopsoas	5LSemiMemb	6LBicFemLong	7LRecFem	8LVastMed	9LVastLat	10LGasMed	11LTibAnt	12lTibPost	13LPeroneusLong	14LSol	15LExtDigLong	16LFlexDigLong	17RAddLong	18RGlutMax	19RGlutMed	20RIliopsoas	21RSemiMemb	22RBicFemLong	23RRecFem	24RVastMed	25RVastLat	26RGasMed	27RTibAnt	28RTibPost	29RPeroneusLong	30RSol	31RExtDigLong	32RFlexDigLong
20.405	0.011292	0.040741	-0.046997	0.020142	-0.036011	0.044403	-0.13855	0.022583	0.02533	-0.051117	-0.032501	0.010223	-0.011749	-0.039215	0.34424	-0.005646	-0.029602	-0.019836	-0.14908	0.082092	-0.00885	0.26215	-0.21866	0.007782	0.19592	-0.049744	-0.063324	0.02594	0.69778	-0.020294	-0.002136	-0.010834
20.406	0.009308	0.034943	-0.085602	0.010681	0.046997	-0.020752	-0.12741	0.008698	0.010376	-0.022278	-0.025482	0.012054	-0.070801	-0.033112	-0.083313	-0.012817	0.004883	-0.053253	-0.39276	0.097198	-0.02243	0.46173	-0.18005	-0.009613	0.12344	-0.033264	0.074615	0.004272	-1.5872	0.08316	-0.007477	-0.00473
20.407	0.02182	-0.000458	-0.15595	0.010529	0.068054	-0.001373	-0.12665	0.004578	0.003662	-0.023499	-0.013123	0.010223	-0.003204	-0.08316	-0.22598	-0.001373	0.005493	-0.11337	-0.7193	0.11612	-0.024414	0.46967	-0.10376	-0.021362	0.080261	-0.073853	0.21271	-0.06546	-1.5785	0.28519	-0.000458	-0.004272
20.408	0.008698	0.036469	-0.22461	0.008392	0.023499	0.065613	-0.11856	0.006256	-0.009155	-0.039215	0.045929	0.013428	0.033112	-0.064087	-0.076752	0.008392	0.015106	-0.046387	-0.44861	0.15366	-0.032043	0.28992	0.061646	-0.03006	0.02121	-0.02533	0.054016	-0.027618	2.2145	0.4863	-0.00412	-0.00351
20.409	0.010223	0.033264	-0.2301	-0.024261	0.006866	0.090637	-0.11047	0.009308	-0.010223	-0.028839	0.025635	0.010071	-0.00412	-0.068359	-0.21271	-0.008087	0.001373	0.007935	-0.20584	0.11047	-0.020142	0.078888	0.11414	-0.027924	-0.020447	0.031891	-0.09491	0.084991	1.6524	0.3009	-0.002136	0.000153
20.41	0.014954	0.06485	-0.11475	-0.001831	0.005798	0.073242	-0.11246	0.007629	-0.017853	-0.011139	-0.091705	0.008545	0.008698	-0.16647	-0.36499	-0.015106	0.000153	0.002747	-0.022583	-0.041504	0.015259	-0.13947	0.19012	-0.059509	-0.013885	0.006866	-0.096436	0.075989	-0.072327	0.066681	-0.004272	-0.000916
20.411	0.010071	0.04837	-0.009155	0.025787	0.005798	0.065613	-0.12116	0.004272	-0.03067	0.021057	-0.063934	0.01709	0.003662	-0.23041	-0.30289	-0.009918	0.001526	0.03891	-0.1326	-0.080566	-0.015259	-0.34424	0.3923	-0.051727	0.008698	0.008392	-0.28748	-0.019379	-1.5666	-0.21439	-0.004578	0.009918
20.412	-0.004578	0.008087	0.079651	0.020599	-0.070953	0.19012	-0.10773	0.00824	-0.028076	0.070648	-0.048218	0.011749	-0.007782	-0.25269	-0.14496	-0.002289	0.00946	0.011597	-0.11307	-0.10544	-0.028229	-0.5957	0.32181	-0.14786	-0.028381	0.021973	-0.13321	-0.041656	-1.4532	-0.0354	-0.00473	-0.006409
20.413	-0.010986	0.012512	0.070038	0.006714	-0.019989	0.24933	-0.11337	0.00824	-0.039215	0.070648	-0.027161	0.009308	-0.012054	-0.27939	0.001068	-0.005188	-0.019226	0.030975	0.18814	0.000458	-0.032806	-0.56793	-0.002747	-0.19989	0.007324	0.025635	-0.042572	-0.023041	0.4332	-0.070038	0.005798	-0.008545
20.414	-0.010681	0.011749	0.027466	0.009155	-0.028534	0.26474	-0.11475	0.016632	-0.035095	0.075378	-0.041962	0.016937	-0.011749	-0.22217	0.057678	0.002747	-0.043793	0.075684	-0.53848	0.037689	-0.021667	-0.10193	-0.26947	0.013123	0.16647	0.02533	0.072021	-0.012817	0.18753	-0.26032	-0.003052	-0.011902
20.415	-0.014191	-0.001984	-0.003967	0.01297	-0.02655	0.12222	-0.13534	0.002289	-0.02121	0.063629	-0.024872	0.010529	-0.01709	-0.075989	0.062866	-0.005646	-0.049286	0.002136	-0.69061	-0.068817	0.00473	0.18768	-0.45303	0.14908	0.18066	0.020599	0.077362	-0.011139	-1.3077	-0.52475	-0.00412	-0.01358
20.416	0.005341	0.068054	-0.005951	-0.006409	-0.02655	0.029602	-0.18112	0.008545	-0.003967	-0.10651	0.002899	0.012665	-0.019836	-0.047607	0.02655	0.005341	-0.018616	0.040741	-0.099945	-0.098572	0.014648	0.12375	-0.27573	-0.088043	0.013275	0.018158	0.15503	-0.020599	-0.75989	-0.29999	-0.001678	-0.006409
20.417	0.016785	0.057373	-0.026245	0.007477	-0.022583	0.055084	-0.17929	0.007324	-0.003052	-0.16663	0.00885	0.016632	-0.041046	-0.045166	0.04303	-0.001373	-0.015869	0.089874	0.2832	-0.009766	0.021667	0.16083	-0.27496	-0.15549	0.005341	0.00946	0.009003	-0.009918	0.49698	-0.14587	-0.009308	-0.006866
20.418	0.023041	0.055695	-0.057678	0.011749	0.031281	0.046387	-0.15915	0.003815	0.008545	-0.093994	0.005493	0.005493	-0.055695	-0.029907	0.14389	0.002441	-0.021667	0.024719	-0.015411	0.1152	0.019684	0.19562	-0.23224	-0.085144	0.16495	0.005035	0.026245	-0.004272	1.1	-0.32272	-0.003052	-0.00412
20.419	0.028992	0.04776	-0.053864	0.025787	0.02121	-0.16174	-0.14496	-0.005646	0.010986	-0.064087	-0.034637	0.012207	-0.065308	-0.016937	0.13596	-0.001068	-0.008698	-0.11063	-0.31982	0.15137	0.022736	-0.018158	-0.040588	-0.073395	0.15915	0.007629	0.49972	-0.002899	0.70953	-0.29602	-0.003357	-0.008392
20.42	0.032654	-0.001068	-0.066528	0.01358	-0.009003	-0.40512	-0.13153	0.000458	0.010376	-0.059814	-0.088501	0.005035	-0.077362	-0.013885	0.12756	0.005341	0.010529	-0.13672	-0.69458	0.09552	0.096741	-0.18204	0.060883	-0.008087	0.08255	0.001831	0.43778	-0.001678	0.50491	-0.19363	-0.000153	-0.00946
20.421	0.011597	-0.000763	-0.10346	0.007172	0.011444	-0.36926	-0.13199	0.001831	0.00351	-0.053711	-0.12299	0.018158	-0.067596	-0.028381	0.63187	0.004883	0.007629	-0.10727	-0.73441	0.08255	0.069885	-0.25696	0.22293	0.15015	0.018616	-0.00412	0.36789	0.00061	-0.081024	-0.26886	0.001068	-0.006409
20.422	0.013275	0.025177	-0.15579	0.001221	0.011597	-0.12833	-0.10681	0.005951	0.00824	-0.042114	-0.042114	0.012512	-0.06134	-0.014038	0.44617	0.010681	0.007019	-0.093384	-0.39459	0.049438	0.007019	-0.34927	0.22385	0.10483	-0.033417	0.006561	-0.2327	-0.005798	-0.043182	-0.30304	-0.001678	0
20.423	0.001984	0.068359	-0.1915	0.003967	0.019531	-0.027008	-0.10132	0.008698	-0.001068	-0.067596	0.16037	0.020294	-0.027618	0.008087	-0.36591	0.00824	-0.010071	-0.095825	0.1239	0.055542	0.014954	-0.20386	0.16022	0.15091	-0.018463	-0.003204	-0.64026	-0.001984	-0.30579	-0.14343	-0.000916	-0.006714
20.424	0.001526	0.068512	-0.24094	-0.003815	0.014648	0.072632	-0.10559	0.007629	0.002289	-0.083008	0.22583	0.010529	-0.005035	0.003662	-0.22949	0.007324	-0.016785	-0.072479	0.17136	-0.018616	-0.020447	-0.088501	-0.11658	0.057526	0.04776	-0.007782	-0.48218	-0.002899	-0.014191	-0.12619	0.00061	-0.010376
